<svg xmlns="http://www.w3.org/2000/svg" viewBox="0 0 420 520">
  <defs>
    <linearGradient id="g" x1="0" y1="0" x2="1" y2="1">
      <stop offset="0" stop-color="#fff8e0"/>
      <stop offset="1" stop-color="#ffffff"/>
    </linearGradient>
  </defs>
  <rect width="420" height="520" rx="28" fill="url(#g)"/>
  <circle cx="210" cy="168" r="74" fill="#f1c3a2"/>
  <path d="M132 170c22-66 138-80 164 4 5 14 5 26 2 40-56 18-124 10-166-44z" fill="#22222c"/>
  <path d="M108 520c-10-124 10-214 66-258 18-14 42-22 72-22s54 8 72 22c56 44 76 134 66 258H108z" fill="#ffffff"/>
  <path d="M168 268h84v252h-84z" fill="#0f0f14" opacity="0.10"/>
</svg>
